<?xml version="1.0" encoding="utf-8"?>
<!-- Generator: Adobe Illustrator 12.0.0, SVG Export Plug-In . SVG Version: 6.00 Build 51448)  -->
<!DOCTYPE svg PUBLIC "-//W3C//DTD SVG 1.1//EN" "http://www.w3.org/Graphics/SVG/1.1/DTD/svg11.dtd" [
	<!ENTITY ns_svg "http://www.w3.org/2000/svg">
	<!ENTITY ns_xlink "http://www.w3.org/1999/xlink">
]>
<svg  version="1.1" id="Layer_1" xmlns="&ns_svg;" xmlns:xlink="&ns_xlink;" width="172.238" height="180.994"
	 viewBox="0 0 172.238 180.994" overflow="visible" enable-background="new 0 0 172.238 180.994" xml:space="preserve">
<path fill="#0099B0" d="M169.567,80.825l-20.775-3.863c-0.505-0.095-1.06-0.571-1.231-1.06l-6.368-14.857
	c-0.237-0.459-0.192-1.18,0.103-1.607L153.4,41.796c0.287-0.425,0.232-1.071-0.135-1.437L138.146,25.24
	c-0.365-0.365-1.01-0.425-1.434-0.133l-17.955,12.32c-0.424,0.292-1.152,0.344-1.611,0.116l-14.405-5.895
	c-0.489-0.162-0.965-0.709-1.062-1.216l-4-21.489c-0.095-0.507-0.592-0.921-1.108-0.921H75.185c-0.514,0-1.012,0.415-1.106,0.921
	l-3.998,21.489c-0.096,0.507-0.572,1.055-1.064,1.216l-14.404,5.895c-0.463,0.228-1.188,0.177-1.613-0.116l-17.952-12.32
	c-0.427-0.292-1.072-0.232-1.437,0.133L18.491,40.359c-0.364,0.365-0.425,1.011-0.132,1.437l12.105,17.643
	c0.292,0.427,0.337,1.148,0.101,1.607l-6.369,14.857c-0.169,0.488-0.721,0.965-1.23,1.06L2.19,80.825
	c-0.507,0.097-0.92,0.594-0.92,1.11v21.383c0,0.517,0.415,1.019,0.922,1.109l20.266,3.771c0.507,0.092,1.048,0.573,1.202,1.065
	l6.329,15.806c0.226,0.461,0.172,1.19-0.121,1.614l-11.511,16.774c-0.291,0.425-0.232,1.071,0.132,1.437l15.124,15.119
	c0.365,0.364,1.01,0.425,1.435,0.135l16.479-11.311c0.425-0.293,1.135-0.315,1.579-0.056l7.267,3.882
	c0.46,0.232,0.996,0.036,1.195-0.441l14.983-36.206c0.199-0.476,0-1.083-0.438-1.354l-1.82-1.114
	c-0.335-0.204-0.792-0.557-1.149-0.881c-6.561-4.2-10.914-11.55-10.914-19.918c0-13.063,10.588-23.648,23.648-23.648
	c13.06,0,23.647,10.586,23.647,23.648c0,8.368-4.352,15.718-10.914,19.918c-0.355,0.324-0.812,0.677-1.146,0.881l-1.82,1.114
	c-0.437,0.271-0.638,0.878-0.438,1.354l14.983,36.208c0.196,0.476,0.732,0.672,1.192,0.439l7.268-3.88
	c0.447-0.26,1.157-0.239,1.581,0.056l16.479,11.309c0.425,0.29,1.071,0.232,1.435-0.132l15.121-15.12
	c0.367-0.366,0.425-1.012,0.135-1.437l-11.514-16.776c-0.291-0.424-0.345-1.15-0.118-1.613l6.326-15.807
	c0.156-0.492,0.694-0.973,1.202-1.063l20.266-3.771c0.507-0.094,0.922-0.595,0.922-1.11l0.003-21.384
	C170.487,81.419,170.073,80.922,169.567,80.825"/>
</svg>
